<svg width="36" height="110" viewBox="0 0 36 110" fill="none" xmlns="http://www.w3.org/2000/svg">
<g clip-path="url(#clip0_221_31)">
<path d="M18.2198 19.41C12.8698 19.41 8.50977 15.06 8.50977 9.7C8.50977 4.34 12.8698 0 18.2198 0C23.5698 0 27.9298 4.35 27.9298 9.71C27.9298 15.07 23.5798 19.42 18.2198 19.42V19.41ZM18.2198 2.5C14.2498 2.5 11.0098 5.73 11.0098 9.71C11.0098 13.69 14.2398 16.92 18.2198 16.92C22.1998 16.92 25.4298 13.69 25.4298 9.71C25.4298 5.73 22.1998 2.5 18.2198 2.5Z" fill="white"/>
<path d="M22.4498 109.25C20.7898 109.25 19.0198 108.46 17.8698 107.19C16.7198 108.46 14.9498 109.25 13.2898 109.25C10.5398 109.25 7.45977 107.06 7.45977 104.13V79.47L7.50977 64.23C6.34977 64.9 4.88977 65.1 3.51977 64.7C1.28977 64.04 0.00976562 61.84 0.00976562 58.68L0.579766 25.39L0.629766 25.23C1.14977 23.48 2.56977 22.16 4.28977 21.72V21.56L5.53977 21.48H32.1598V21.72C33.8798 22.16 35.3098 23.48 35.8198 25.23L35.8698 25.4L35.7698 58.93C35.7698 63.04 33.8598 64.47 32.2598 64.94C30.8898 65.34 29.4398 65.14 28.2798 64.48V104.13C28.2798 107.06 25.1998 109.25 22.4498 109.25ZM19.1198 66.78V104.13C19.1198 105.52 20.9798 106.75 22.4498 106.75C23.9198 106.75 25.7798 105.51 25.7798 104.13V38.37H28.2798L28.3398 60.93C28.7998 62.19 30.2198 62.94 31.5498 62.55C31.9698 62.43 33.2698 62.04 33.2698 58.93L33.3698 25.78C32.9898 24.76 31.9998 24.06 30.8998 24.06H29.6498V23.98H6.78977L5.53977 24.06C4.43977 24.06 3.43977 24.77 3.06977 25.79L2.49977 58.69C2.49977 59.83 2.71977 61.84 4.21977 62.29C5.53977 62.68 6.96977 61.93 7.42977 60.67L7.57977 38.1H10.0798L9.95977 79.46V104.12C9.95977 105.51 11.8198 106.74 13.2898 106.74C14.7598 106.74 16.6198 105.5 16.6198 104.12V66.77H19.1198V66.78Z" fill="white"/>
</g>
<defs>
<clipPath id="clip0_221_31">
<rect width="35.87" height="109.25" fill="white"/>
</clipPath>
</defs>
</svg>
