<svg width="49" height="110" viewBox="0 0 49 110" fill="none" xmlns="http://www.w3.org/2000/svg">
<g clip-path="url(#clip0_221_34)">
<path d="M24.1099 19.41C18.7599 19.41 14.3999 15.06 14.3999 9.7C14.3999 4.34 18.7499 0 24.1099 0C29.4699 0 33.8199 4.35 33.8199 9.71C33.8199 15.07 29.4699 19.42 24.1099 19.42V19.41ZM24.1099 2.5C20.1399 2.5 16.8999 5.73 16.8999 9.71C16.8999 13.69 20.1299 16.92 24.1099 16.92C28.0899 16.92 31.3199 13.69 31.3199 9.71C31.3199 5.73 28.0899 2.5 24.1099 2.5Z" fill="white"/>
<path d="M27.63 109.25C26.08 109.25 24.69 108.56 23.75 107.48C22.81 108.57 21.42 109.25 19.87 109.25C17.04 109.25 14.74 106.95 14.74 104.13V80.72H2.85001L6.71001 64.65C5.76001 64.97 4.69001 64.99 3.67001 64.7C0.960005 63.89 -0.599995 61.03 0.210005 58.33L9.32001 25.25C9.93001 23.2 17.54 21.05 24.13 21.05C30.71 21.05 38.29 23.2 38.89 25.23L47.96 58.6C48.34 59.89 48.2 61.27 47.54 62.48C46.89 63.68 45.8 64.56 44.49 64.95C43.5 65.24 42.46 65.22 41.54 64.94L45.36 80.73H32.75V104.14C32.75 106.97 30.45 109.26 27.62 109.26L27.63 109.25ZM25 79.46V104.12C25 105.57 26.18 106.74 27.63 106.74C29.08 106.74 30.26 105.56 30.26 104.12V78.21H42.19L32.61 38.65L35.04 38.06L40.57 60.91C41.03 62.18 42.43 62.93 43.79 62.53C44.46 62.33 45.01 61.88 45.35 61.27C45.69 60.66 45.76 59.94 45.56 59.27L36.56 26.16C35.57 25.44 30.55 23.54 24.15 23.54C17.7 23.54 12.66 25.45 11.67 26.16L2.62001 59.01C2.20001 60.42 3.00001 61.89 4.39001 62.3C5.76001 62.7 7.25001 61.87 7.65001 60.53L13.16 37.83L15.59 38.42L6.04001 78.23H17.27V104.14C17.27 105.59 18.45 106.76 19.9 106.76C21.35 106.76 22.53 105.58 22.53 104.14V79.48H25.03L25 79.46Z" fill="white"/>
</g>
<defs>
<clipPath id="clip0_221_34">
<rect width="48.17" height="109.25" fill="white"/>
</clipPath>
</defs>
</svg>
